<svg width="180" height="16" viewBox="0 0 180 16" fill="none" xmlns="http://www.w3.org/2000/svg">
<path fill-rule="evenodd" clip-rule="evenodd" d="M30.6145 8.00364C30.6158 9.57925 30.1579 11.1198 29.299 12.4305C28.4401 13.7412 27.2187 14.7631 25.7892 15.3669C24.3597 15.9708 22.7864 16.1294 21.2684 15.8228C19.7503 15.5161 18.3557 14.7581 17.2609 13.6444C16.1662 12.5307 15.4204 11.1115 15.118 9.56621C15.0314 9.12378 14.9823 8.67671 14.9702 8.22976C14.9137 10.1692 14.1323 12.0171 12.7807 13.3932C11.3766 14.8226 9.47235 15.6256 7.48675 15.6256H0V0.381483H7.48675C9.47235 0.381483 11.3766 1.18451 12.7807 2.61393C14.1337 3.99143 14.9154 5.84191 14.9704 7.78366C14.9973 6.81965 15.1961 5.86358 15.5622 4.96335C16.1541 3.50756 17.1569 2.26321 18.4436 1.38772C19.7304 0.51223 21.2432 0.0449219 22.7909 0.0449219C24.8638 0.0482763 26.8509 0.887687 28.3172 2.37932C29.7835 3.87096 30.6096 5.89331 30.6145 8.00364ZM50.236 0.381105L48.1086 8.3525L45.9873 0.381105H42.0817L39.9293 8.37793L37.8018 0.381105H31.775L37.0906 15.6252H42.0817L44.0408 9.44501L45.9873 15.6252H50.9785L56.2628 0.381105H50.236ZM72.0475 0.381105V15.6252H66.37V10.1691H62.8325V15.6252H57.1551V0.381105H62.8325V5.83724H66.3762V0.381105H72.0475ZM74.1749 0.381105V15.6252H79.8461V0.381105H74.1749ZM92.2616 11.2616V15.6252H81.9736V0.381105H87.651V11.287L92.2616 11.2616ZM99.3491 6.17387V4.71934L103.96 4.74473V0.381105H93.6779V15.6252H103.96V11.2616H99.3491V9.80707H102.899V6.17387H99.3491Z" fill="url(#paint0_linear)"/>
<path d="M121.915 0.476367L119.894 0.1651C119.832 0.1651 119.769 0.165117 119.769 0.222283L118.908 1.34655C118.864 1.42089 118.844 1.50768 118.852 1.59424C118.852 1.65775 118.79 1.7848 118.727 1.72128L118.054 1.53709C117.929 1.53709 117.81 1.53709 117.748 1.65778L114.99 5.27826C114.928 5.34178 114.865 5.34177 114.747 5.34177L113.705 4.83999C113.66 4.80914 113.607 4.79266 113.552 4.79266C113.498 4.79266 113.444 4.80914 113.399 4.83999L112.844 5.21472C112.799 5.24641 112.746 5.26342 112.691 5.26342C112.636 5.26342 112.583 5.24641 112.538 5.21472L112.295 5.08768C112.255 5.06937 112.211 5.05982 112.167 5.05961C112.123 5.0594 112.079 5.06856 112.038 5.08648C111.998 5.1044 111.962 5.13073 111.932 5.16374C111.902 5.19676 111.879 5.23576 111.864 5.27826L111.684 6.14845C111.66 6.24089 111.665 6.33844 111.697 6.42808C111.729 6.51772 111.788 6.59519 111.864 6.65022L112.357 6.96145L113.643 7.77448L114.266 8.14921C114.353 8.19933 114.452 8.22022 114.551 8.2088C114.65 8.19738 114.742 8.15426 114.815 8.08571L115.857 7.15199C115.951 7.09438 116.061 7.07192 116.169 7.08849L116.475 7.27267C116.594 7.33619 116.718 7.33621 116.781 7.20917L117.33 6.71372C117.368 6.672 117.418 6.64346 117.473 6.63207C117.527 6.62068 117.584 6.62703 117.636 6.65022L118.434 7.02499C118.559 7.0885 118.677 7.02496 118.802 6.96145L119.17 6.46603L121.928 2.84554C122.046 2.65499 121.99 2.40727 121.741 2.40727L121.117 2.28659C120.992 2.28659 120.936 2.09604 120.992 1.969L121.978 0.787595C122.103 0.66056 122.034 0.476367 121.915 0.476367Z" fill="white"/>
<path d="M112.744 7.77448C112.682 7.71096 112.619 7.77447 112.619 7.83798L112.925 8.64466V8.83521L112.682 9.89593C112.678 9.92944 112.681 9.96346 112.692 9.99537C112.703 10.0273 112.721 10.0563 112.744 10.0802L113.474 10.6454C113.51 10.6732 113.554 10.6883 113.599 10.6883C113.644 10.6883 113.688 10.6732 113.724 10.6454L114.516 9.95947C114.541 9.93546 114.57 9.9173 114.602 9.90632C114.635 9.89534 114.669 9.89178 114.703 9.89593L115.558 9.76893C115.62 9.76893 115.62 9.7054 115.558 9.64189L112.744 7.77448Z" fill="white"/>
<path d="M112.476 10.4549C112.465 10.4404 112.452 10.4287 112.436 10.4206C112.42 10.4125 112.403 10.4083 112.385 10.4083C112.368 10.4083 112.35 10.4125 112.335 10.4206C112.319 10.4287 112.305 10.4404 112.295 10.4549L111.671 10.7661C111.654 10.7661 111.639 10.7728 111.627 10.7847C111.615 10.7966 111.609 10.8128 111.609 10.8297L110.261 14.1961H110.323L110.629 14.0754V14.1389L109.65 15.7586C109.65 15.8221 109.65 15.8221 109.706 15.8221L113.137 12.2651C113.2 12.2651 113.2 12.2016 113.2 12.1381L113.262 11.2044C113.262 11.1409 113.262 11.0774 113.2 11.0774L112.476 10.4549Z" fill="white"/>
<path d="M139.241 11.2617V15.6254H125.415C125.415 15.6254 131.991 8.27008 132.858 6.54241C133.545 5.18314 132.815 4.36378 132.147 4.36378C131.48 4.36378 130.731 4.75123 130.731 6.54241L125.459 6.18036C125.459 2.77584 127.805 0.00646973 132.147 0.00646973C136.334 0.00646973 138.885 2.25499 138.885 5.45625C138.885 7.45069 137.201 9.72462 135.342 11.2681L139.241 11.2617Z" fill="white"/>
<path d="M154.838 8.00359C154.838 12.4117 151.975 16.0004 147.745 16.0004C143.515 16.0004 140.657 12.4117 140.657 8.00359C140.657 3.5955 143.515 0.0131226 147.745 0.0131226C151.975 0.0131226 154.838 3.55739 154.838 8.00359Z" fill="white"/>
<path d="M170.08 11.2617V15.6254H156.255C156.255 15.6254 162.83 8.27008 163.698 6.54241C164.384 5.18314 163.654 4.36378 162.986 4.36378C162.319 4.36378 161.57 4.75123 161.57 6.54241L156.298 6.18036C156.298 2.77584 158.644 0.00646973 162.986 0.00646973C167.173 0.00646973 169.724 2.25499 169.724 5.45625C169.724 7.45069 168.04 9.72462 166.181 11.2681L170.08 11.2617Z" fill="white"/>
<path d="M180 0V15.6252H174.329V5.46246L171.833 5.78004V1.39735L180 0Z" fill="white"/>
<defs>
<linearGradient id="paint0_linear" x1="-2.12708e-06" y1="0.422791" x2="34.4775" y2="57.7574" gradientUnits="userSpaceOnUse">
<stop stop-color="#FF008E"/>
<stop offset="1" stop-color="#FFCD1E"/>
</linearGradient>
</defs>
</svg>
